<?xml version="1.0" encoding="UTF-8" standalone="no"?>
<svg width="281px" height="55px" viewBox="0 0 281 55" version="1.1" xmlns="http://www.w3.org/2000/svg" xmlns:xlink="http://www.w3.org/1999/xlink" xmlns:sketch="http://www.bohemiancoding.com/sketch/ns">
    <!-- Generator: Sketch 3.3.3 (12072) - http://www.bohemiancoding.com/sketch -->
    <title>Beta</title>
    <desc>Created with Sketch.</desc>
    <defs></defs>
    <g id="Page-1" stroke="none" stroke-width="1" fill="none" fill-rule="evenodd" sketch:type="MSPage">
        <g id="Beta" sketch:type="MSLayerGroup" fill="#FFFFFF">
            <path d="M5.47843656,54.9082569 C2.45452224,54.9082569 0,52.4450881 0,49.40421 L0,5.51123234 C0,2.4717913 2.45452224,0 5.47843656,0 L275.527272,0 C278.55404,0 280.998573,2.4717913 280.998573,5.51123234 L281,49.40421 C281,52.4450881 278.55404,54.9082569 275.528699,54.9082569 L5.47843656,54.9082569 Z" id="Background" fill-opacity="0.1" sketch:type="MSShapeGroup"></path>
            <g id="Apple" transform="translate(11.935252, 8.236239)" sketch:type="MSShapeGroup">
                <path d="M23.7792806,18.9213853 C23.7396403,14.4971525 27.3865468,12.3447489 27.5533094,12.2445413 C25.4879137,9.22046904 22.2866187,8.8072844 21.1616547,8.77433945 C18.4729496,8.49018922 15.8648921,10.3900149 14.4952518,10.3900149 C13.0982734,10.3900149 10.9891367,8.80179358 8.71597122,8.8484656 C5.79079137,8.89376491 3.0542446,10.5945482 1.55338129,13.2356353 C-1.54402878,18.6207626 0.76604317,26.5344151 3.73359712,30.8872672 C5.21805755,33.0190803 6.95266187,35.3993532 9.2230935,35.3156181 C11.4443165,35.2236468 12.2740288,33.8934943 14.9545324,33.8934943 C17.6104317,33.8934943 18.3895683,35.3156181 20.7051079,35.2620826 C23.0889928,35.2236468 24.5898561,33.1206606 26.0223741,30.9696296 C27.7378417,28.5262122 28.4267626,26.1198578 28.4541007,25.9963142 C28.3980576,25.9770963 23.8243885,24.2241502 23.7792806,18.9213853 L23.7792806,18.9213853 L23.7792806,18.9213853 Z" id="Shape"></path>
                <path d="M19.4051799,5.91087385 C20.5998561,4.41050573 21.4172662,2.36929128 21.1903597,0.297877294 C19.461223,0.374748853 17.298777,1.49899541 16.0535252,2.96641858 C14.9517986,4.25950803 13.9676259,6.37896674 14.2218705,8.37213647 C16.1642446,8.51764335 18.1585612,7.38790596 19.4051799,5.91087385 L19.4051799,5.91087385 L19.4051799,5.91087385 Z" id="Shape"></path>
            </g>
            <text id="Sign-up-for-beta" sketch:type="MSTextLayer" font-family="Gotham Light" font-size="27.6108239" font-weight="normal">
                <tspan x="50.5755396" y="38.2178899">Sign up for beta</tspan>
            </text>
        </g>
    </g>
</svg>